<svg id="visual" viewBox="0 0 900 600" width="900" height="600" xmlns="http://www.w3.org/2000/svg" xmlns:xlink="http://www.w3.org/1999/xlink" version="1.1"><rect x="0" y="0" width="900" height="600" fill="#001220"></rect><defs><linearGradient id="grad1_0" x1="33.3%" y1="100%" x2="100%" y2="0%"><stop offset="20%" stop-color="#fbae3c" stop-opacity="1"></stop><stop offset="80%" stop-color="#fbae3c" stop-opacity="1"></stop></linearGradient></defs><defs><linearGradient id="grad1_1" x1="33.3%" y1="100%" x2="100%" y2="0%"><stop offset="20%" stop-color="#fbae3c" stop-opacity="1"></stop><stop offset="80%" stop-color="#eb7458" stop-opacity="1"></stop></linearGradient></defs><defs><linearGradient id="grad1_2" x1="33.3%" y1="100%" x2="100%" y2="0%"><stop offset="20%" stop-color="#b84e6c" stop-opacity="1"></stop><stop offset="80%" stop-color="#eb7458" stop-opacity="1"></stop></linearGradient></defs><defs><linearGradient id="grad1_3" x1="33.3%" y1="100%" x2="100%" y2="0%"><stop offset="20%" stop-color="#b84e6c" stop-opacity="1"></stop><stop offset="80%" stop-color="#713c69" stop-opacity="1"></stop></linearGradient></defs><defs><linearGradient id="grad1_4" x1="33.3%" y1="100%" x2="100%" y2="0%"><stop offset="20%" stop-color="#2d2b4c" stop-opacity="1"></stop><stop offset="80%" stop-color="#713c69" stop-opacity="1"></stop></linearGradient></defs><defs><linearGradient id="grad1_5" x1="33.3%" y1="100%" x2="100%" y2="0%"><stop offset="20%" stop-color="#2d2b4c" stop-opacity="1"></stop><stop offset="80%" stop-color="#001220" stop-opacity="1"></stop></linearGradient></defs><defs><linearGradient id="grad2_0" x1="0%" y1="100%" x2="66.7%" y2="0%"><stop offset="20%" stop-color="#fbae3c" stop-opacity="1"></stop><stop offset="80%" stop-color="#fbae3c" stop-opacity="1"></stop></linearGradient></defs><defs><linearGradient id="grad2_1" x1="0%" y1="100%" x2="66.7%" y2="0%"><stop offset="20%" stop-color="#eb7458" stop-opacity="1"></stop><stop offset="80%" stop-color="#fbae3c" stop-opacity="1"></stop></linearGradient></defs><defs><linearGradient id="grad2_2" x1="0%" y1="100%" x2="66.7%" y2="0%"><stop offset="20%" stop-color="#eb7458" stop-opacity="1"></stop><stop offset="80%" stop-color="#b84e6c" stop-opacity="1"></stop></linearGradient></defs><defs><linearGradient id="grad2_3" x1="0%" y1="100%" x2="66.7%" y2="0%"><stop offset="20%" stop-color="#713c69" stop-opacity="1"></stop><stop offset="80%" stop-color="#b84e6c" stop-opacity="1"></stop></linearGradient></defs><defs><linearGradient id="grad2_4" x1="0%" y1="100%" x2="66.7%" y2="0%"><stop offset="20%" stop-color="#713c69" stop-opacity="1"></stop><stop offset="80%" stop-color="#2d2b4c" stop-opacity="1"></stop></linearGradient></defs><defs><linearGradient id="grad2_5" x1="0%" y1="100%" x2="66.7%" y2="0%"><stop offset="20%" stop-color="#001220" stop-opacity="1"></stop><stop offset="80%" stop-color="#2d2b4c" stop-opacity="1"></stop></linearGradient></defs><g transform="translate(900, 600)"><path d="M-297.5 0C-296.5 -32.8 -295.5 -65.6 -281.5 -91.5C-267.5 -117.3 -240.5 -136.2 -222.5 -161.6C-204.4 -187.1 -195.3 -219 -174.8 -240.6C-154.4 -262.3 -122.5 -273.8 -91.5 -281.5C-60.4 -289.3 -30.2 -293.4 0 -297.5L0 0Z" fill="#131f37"></path><path d="M-247.9 0C-247.1 -27.3 -246.2 -54.7 -234.6 -76.2C-222.9 -97.8 -200.4 -113.5 -185.4 -134.7C-170.4 -155.9 -162.8 -182.5 -145.7 -200.5C-128.6 -218.6 -102.1 -228.1 -76.2 -234.6C-50.4 -241.1 -25.2 -244.5 0 -247.9L0 0Z" fill="#4d345e"></path><path d="M-198.3 0C-197.7 -21.9 -197 -43.7 -187.7 -61C-178.4 -78.2 -160.4 -90.8 -148.3 -107.8C-136.3 -124.7 -130.2 -146 -116.6 -160.4C-102.9 -174.9 -81.7 -182.5 -61 -187.7C-40.3 -192.8 -20.1 -195.6 0 -198.3L0 0Z" fill="#96446e"></path><path d="M-148.7 0C-148.2 -16.4 -147.7 -32.8 -140.8 -45.7C-133.8 -58.7 -120.3 -68.1 -111.2 -80.8C-102.2 -93.5 -97.7 -109.5 -87.4 -120.3C-77.2 -131.2 -61.3 -136.9 -45.7 -140.8C-30.2 -144.6 -15.1 -146.7 0 -148.7L0 0Z" fill="#d55e64"></path><path d="M-99.2 0C-98.8 -10.9 -98.5 -21.9 -93.8 -30.5C-89.2 -39.1 -80.2 -45.4 -74.2 -53.9C-68.1 -62.4 -65.1 -73 -58.3 -80.2C-51.5 -87.4 -40.8 -91.3 -30.5 -93.8C-20.1 -96.4 -10.1 -97.8 0 -99.2L0 0Z" fill="#f88f4a"></path><path d="M-49.6 0C-49.4 -5.5 -49.2 -10.9 -46.9 -15.2C-44.6 -19.6 -40.1 -22.7 -37.1 -26.9C-34.1 -31.2 -32.6 -36.5 -29.1 -40.1C-25.7 -43.7 -20.4 -45.6 -15.2 -46.9C-10.1 -48.2 -5 -48.9 0 -49.6L0 0Z" fill="#fbae3c"></path></g><g transform="translate(0, 0)"><path d="M297.5 0C289.4 29.3 281.3 58.6 272 88.4C262.7 118.1 252.1 148.4 232.2 168.7C212.3 189 183 199.4 159.3 219.2C135.6 239.1 117.5 268.3 91.9 282.9C66.3 297.5 33.2 297.5 0 297.5L0 0Z" fill="#131f37"></path><path d="M247.9 0C241.2 24.4 234.4 48.8 226.7 73.6C218.9 98.5 210.1 123.6 193.5 140.6C176.9 157.5 152.5 166.2 132.7 182.7C113 199.2 97.9 223.6 76.6 235.7C55.3 247.9 27.6 247.9 0 247.9L0 0Z" fill="#4d345e"></path><path d="M198.3 0C192.9 19.5 187.5 39.1 181.3 58.9C175.1 78.8 168.1 98.9 154.8 112.5C141.5 126 122 132.9 106.2 146.2C90.4 159.4 78.4 178.9 61.3 188.6C44.2 198.3 22.1 198.3 0 198.3L0 0Z" fill="#96446e"></path><path d="M148.7 0C144.7 14.7 140.7 29.3 136 44.2C131.3 59.1 126.1 74.2 116.1 84.3C106.1 94.5 91.5 99.7 79.6 109.6C67.8 119.5 58.8 134.1 46 141.4C33.2 148.8 16.6 148.7 0 148.7L0 0Z" fill="#d55e64"></path><path d="M99.2 0C96.5 9.8 93.8 19.5 90.7 29.5C87.6 39.4 84 49.5 77.4 56.2C70.8 63 61 66.5 53.1 73.1C45.2 79.7 39.2 89.4 30.6 94.3C22.1 99.2 11.1 99.2 0 99.2L0 0Z" fill="#f88f4a"></path><path d="M49.6 0C48.2 4.9 46.9 9.8 45.3 14.7C43.8 19.7 42 24.7 38.7 28.1C35.4 31.5 30.5 33.2 26.5 36.5C22.6 39.8 19.6 44.7 15.3 47.1C11.1 49.6 5.5 49.6 0 49.6L0 0Z" fill="#fbae3c"></path></g></svg>