<svg id="visual" viewBox="0 0 540 960" width="540" height="960" xmlns="http://www.w3.org/2000/svg" xmlns:xlink="http://www.w3.org/1999/xlink" version="1.1"><rect x="0" y="0" width="540" height="960" fill="#031749"></rect><defs><linearGradient id="grad1_0" x1="0%" y1="100%" x2="100%" y2="0%"><stop offset="30%" stop-color="#fb5b5a" stop-opacity="1"></stop><stop offset="70%" stop-color="#fb5b5a" stop-opacity="1"></stop></linearGradient></defs><defs><linearGradient id="grad1_1" x1="0%" y1="100%" x2="100%" y2="0%"><stop offset="30%" stop-color="#fb5b5a" stop-opacity="1"></stop><stop offset="70%" stop-color="#e24565" stop-opacity="1"></stop></linearGradient></defs><defs><linearGradient id="grad1_2" x1="0%" y1="100%" x2="100%" y2="0%"><stop offset="30%" stop-color="#c4346c" stop-opacity="1"></stop><stop offset="70%" stop-color="#e24565" stop-opacity="1"></stop></linearGradient></defs><defs><linearGradient id="grad1_3" x1="0%" y1="100%" x2="100%" y2="0%"><stop offset="30%" stop-color="#c4346c" stop-opacity="1"></stop><stop offset="70%" stop-color="#a22b6f" stop-opacity="1"></stop></linearGradient></defs><defs><linearGradient id="grad1_4" x1="0%" y1="100%" x2="100%" y2="0%"><stop offset="30%" stop-color="#7e266d" stop-opacity="1"></stop><stop offset="70%" stop-color="#a22b6f" stop-opacity="1"></stop></linearGradient></defs><defs><linearGradient id="grad1_5" x1="0%" y1="100%" x2="100%" y2="0%"><stop offset="30%" stop-color="#7e266d" stop-opacity="1"></stop><stop offset="70%" stop-color="#592266" stop-opacity="1"></stop></linearGradient></defs><defs><linearGradient id="grad1_6" x1="0%" y1="100%" x2="100%" y2="0%"><stop offset="30%" stop-color="#321e59" stop-opacity="1"></stop><stop offset="70%" stop-color="#592266" stop-opacity="1"></stop></linearGradient></defs><defs><linearGradient id="grad1_7" x1="0%" y1="100%" x2="100%" y2="0%"><stop offset="30%" stop-color="#321e59" stop-opacity="1"></stop><stop offset="70%" stop-color="#031749" stop-opacity="1"></stop></linearGradient></defs><defs><linearGradient id="grad2_0" x1="0%" y1="100%" x2="100%" y2="0%"><stop offset="30%" stop-color="#fb5b5a" stop-opacity="1"></stop><stop offset="70%" stop-color="#fb5b5a" stop-opacity="1"></stop></linearGradient></defs><defs><linearGradient id="grad2_1" x1="0%" y1="100%" x2="100%" y2="0%"><stop offset="30%" stop-color="#e24565" stop-opacity="1"></stop><stop offset="70%" stop-color="#fb5b5a" stop-opacity="1"></stop></linearGradient></defs><defs><linearGradient id="grad2_2" x1="0%" y1="100%" x2="100%" y2="0%"><stop offset="30%" stop-color="#e24565" stop-opacity="1"></stop><stop offset="70%" stop-color="#c4346c" stop-opacity="1"></stop></linearGradient></defs><defs><linearGradient id="grad2_3" x1="0%" y1="100%" x2="100%" y2="0%"><stop offset="30%" stop-color="#a22b6f" stop-opacity="1"></stop><stop offset="70%" stop-color="#c4346c" stop-opacity="1"></stop></linearGradient></defs><defs><linearGradient id="grad2_4" x1="0%" y1="100%" x2="100%" y2="0%"><stop offset="30%" stop-color="#a22b6f" stop-opacity="1"></stop><stop offset="70%" stop-color="#7e266d" stop-opacity="1"></stop></linearGradient></defs><defs><linearGradient id="grad2_5" x1="0%" y1="100%" x2="100%" y2="0%"><stop offset="30%" stop-color="#592266" stop-opacity="1"></stop><stop offset="70%" stop-color="#7e266d" stop-opacity="1"></stop></linearGradient></defs><defs><linearGradient id="grad2_6" x1="0%" y1="100%" x2="100%" y2="0%"><stop offset="30%" stop-color="#592266" stop-opacity="1"></stop><stop offset="70%" stop-color="#321e59" stop-opacity="1"></stop></linearGradient></defs><defs><linearGradient id="grad2_7" x1="0%" y1="100%" x2="100%" y2="0%"><stop offset="30%" stop-color="#031749" stop-opacity="1"></stop><stop offset="70%" stop-color="#321e59" stop-opacity="1"></stop></linearGradient></defs><g transform="translate(540, 960)"><path d="M-297 0C-291.2 -29.6 -285.4 -59.1 -276.8 -89.9C-268.1 -120.7 -256.6 -152.8 -233 -169.3C-209.4 -185.8 -173.5 -186.7 -149.9 -206.3C-126.2 -225.9 -114.7 -264.2 -91.8 -282.5C-68.8 -300.7 -34.4 -298.8 0 -297L0 0Z" fill="#1e1b52"></path><path d="M-259.9 0C-254.8 -25.9 -249.7 -51.7 -242.2 -78.7C-234.6 -105.6 -224.6 -133.7 -203.9 -148.1C-183.2 -162.5 -151.8 -163.3 -131.1 -180.5C-110.5 -197.7 -100.4 -231.2 -80.3 -247.2C-60.2 -263.1 -30.1 -261.5 0 -259.9L0 0Z" fill="#462060"></path><path d="M-222.7 0C-218.4 -22.2 -214 -44.3 -207.6 -67.4C-201.1 -90.5 -192.5 -114.6 -174.7 -127C-157 -139.3 -130.2 -140 -112.4 -154.7C-94.7 -169.4 -86 -198.2 -68.8 -211.8C-51.6 -225.5 -25.8 -224.1 0 -222.7L0 0Z" fill="#6b246a"></path><path d="M-185.6 0C-182 -18.5 -178.4 -36.9 -173 -56.2C-167.6 -75.5 -160.4 -95.5 -145.6 -105.8C-130.8 -116.1 -108.5 -116.7 -93.7 -128.9C-78.9 -141.2 -71.7 -165.1 -57.4 -176.5C-43 -187.9 -21.5 -186.8 0 -185.6L0 0Z" fill="#90286e"></path><path d="M-148.5 0C-145.6 -14.8 -142.7 -29.6 -138.4 -45C-134.1 -60.4 -128.3 -76.4 -116.5 -84.6C-104.7 -92.9 -86.8 -93.3 -74.9 -103.1C-63.1 -113 -57.4 -132.1 -45.9 -141.2C-34.4 -150.3 -17.2 -149.4 0 -148.5L0 0Z" fill="#b42f6e"></path><path d="M-111.4 0C-109.2 -11.1 -107 -22.2 -103.8 -33.7C-100.5 -45.3 -96.2 -57.3 -87.4 -63.5C-78.5 -69.7 -65.1 -70 -56.2 -77.4C-47.3 -84.7 -43 -99.1 -34.4 -105.9C-25.8 -112.8 -12.9 -112.1 0 -111.4L0 0Z" fill="#d43c69"></path><path d="M-74.2 0C-72.8 -7.4 -71.3 -14.8 -69.2 -22.5C-67 -30.2 -64.2 -38.2 -58.2 -42.3C-52.3 -46.4 -43.4 -46.7 -37.5 -51.6C-31.6 -56.5 -28.7 -66.1 -22.9 -70.6C-17.2 -75.2 -8.6 -74.7 0 -74.2L0 0Z" fill="#ef4f60"></path><path d="M-37.1 0C-36.4 -3.7 -35.7 -7.4 -34.6 -11.2C-33.5 -15.1 -32.1 -19.1 -29.1 -21.2C-26.2 -23.2 -21.7 -23.3 -18.7 -25.8C-15.8 -28.2 -14.3 -33 -11.5 -35.3C-8.6 -37.6 -4.3 -37.4 0 -37.1L0 0Z" fill="#fb5b5a"></path></g><g transform="translate(0, 0)"><path d="M297 0C297.2 33 297.4 66 282.5 91.8C267.5 117.5 237.4 136 213.6 155.2C189.8 174.3 172.3 194.1 151.1 207.9C129.8 221.7 104.9 229.6 79.1 243.5C53.3 257.3 26.7 277.2 0 297L0 0Z" fill="#1e1b52"></path><path d="M259.9 0C260.1 28.9 260.2 57.8 247.2 80.3C234.1 102.8 207.7 119 186.9 135.8C166.1 152.5 150.7 169.8 132.2 181.9C113.6 194 91.8 200.9 69.2 213C46.6 225.2 23.3 242.5 0 259.9L0 0Z" fill="#462060"></path><path d="M222.8 0C222.9 24.8 223.1 49.5 211.8 68.8C200.6 88.2 178 102 160.2 116.4C142.3 130.7 129.2 145.6 113.3 155.9C97.4 166.3 78.7 172.2 59.3 182.6C40 193 20 207.9 0 222.8L0 0Z" fill="#6b246a"></path><path d="M185.6 0C185.8 20.6 185.9 41.3 176.5 57.4C167.2 73.5 148.4 85 133.5 97C118.6 108.9 107.7 121.3 94.4 129.9C81.2 138.6 65.6 143.5 49.4 152.2C33.3 160.8 16.7 173.2 0 185.6L0 0Z" fill="#90286e"></path><path d="M148.5 0C148.6 16.5 148.7 33 141.2 45.9C133.8 58.8 118.7 68 106.8 77.6C94.9 87.2 86.1 97 75.5 104C64.9 110.9 52.5 114.8 39.6 121.7C26.7 128.7 13.3 138.6 0 148.5L0 0Z" fill="#b42f6e"></path><path d="M111.4 0C111.5 12.4 111.5 24.8 105.9 34.4C100.3 44.1 89 51 80.1 58.2C71.2 65.4 64.6 72.8 56.6 78C48.7 83.2 39.3 86.1 29.7 91.3C20 96.5 10 103.9 0 111.4L0 0Z" fill="#d43c69"></path><path d="M74.3 0C74.3 8.3 74.4 16.5 70.6 22.9C66.9 29.4 59.3 34 53.4 38.8C47.4 43.6 43.1 48.5 37.8 52C32.5 55.4 26.2 57.4 19.8 60.9C13.3 64.3 6.7 69.3 0 74.3L0 0Z" fill="#ef4f60"></path><path d="M37.1 0C37.2 4.1 37.2 8.3 35.3 11.5C33.4 14.7 29.7 17 26.7 19.4C23.7 21.8 21.5 24.3 18.9 26C16.2 27.7 13.1 28.7 9.9 30.4C6.7 32.2 3.3 34.6 0 37.1L0 0Z" fill="#fb5b5a"></path></g></svg>